<svg xmlns="http://www.w3.org/2000/svg" width="340" height="103" fill="none"><path fill="#F31C1C" d="M27.924 102 7.388 54.4h11.9L37.24 96.56h-7.004L48.46 54.4h10.948L38.804 102h-10.88Zm77.361 0V54.4h11.016v38.624h23.868V102h-34.884Z"/><path fill="#000" d="M63.63 102V65.416h10.608V102H63.63Zm5.304-41.684c-1.949 0-3.536-.567-4.76-1.7-1.224-1.133-1.836-2.539-1.836-4.216s.612-3.083 1.836-4.216c1.224-1.133 2.811-1.7 4.76-1.7 1.95 0 3.536.544 4.76 1.632 1.224 1.043 1.836 2.403 1.836 4.08 0 1.768-.612 3.241-1.836 4.42-1.178 1.133-2.765 1.7-4.76 1.7ZM84.084 102V65.416h10.608V102H84.084Zm5.303-41.684c-1.949 0-3.535-.567-4.76-1.7-1.224-1.133-1.835-2.539-1.835-4.216s.611-3.083 1.835-4.216c1.225-1.133 2.811-1.7 4.76-1.7 1.95 0 3.537.544 4.76 1.632 1.224 1.043 1.837 2.403 1.837 4.08 0 1.768-.612 3.241-1.837 4.42-1.178 1.133-2.765 1.7-4.76 1.7Zm64.961 34.204.272-12.92 17.068-16.184h12.648l-16.388 16.66-5.508 4.488-8.092 7.956Zm-8.772 7.48V51.544h10.608V102h-10.608Zm27.268 0-12.376-15.368 6.664-8.228L185.696 102h-12.852Zm39.398 0v-7.14l-.68-1.564V80.512c0-2.267-.702-4.035-2.108-5.304-1.36-1.27-3.468-1.904-6.324-1.904-1.949 0-3.876.317-5.78.952-1.858.59-3.445 1.405-4.76 2.448l-3.808-7.412c1.995-1.405 4.398-2.493 7.208-3.264a32.26 32.26 0 0 1 8.568-1.156c5.576 0 9.906 1.315 12.988 3.944 3.083 2.63 4.624 6.732 4.624 12.308V102h-9.928Zm-11.152.544c-2.856 0-5.304-.476-7.344-1.428-2.04-.997-3.604-2.335-4.692-4.012-1.088-1.677-1.632-3.559-1.632-5.644 0-2.176.522-4.08 1.564-5.712 1.088-1.632 2.788-2.901 5.1-3.808 2.312-.952 5.327-1.428 9.044-1.428h9.724V86.7h-8.568c-2.493 0-4.216.408-5.168 1.224-.906.816-1.36 1.836-1.36 3.06 0 1.36.522 2.448 1.564 3.264 1.088.77 2.562 1.156 4.42 1.156 1.768 0 3.355-.408 4.76-1.224 1.406-.861 2.426-2.108 3.06-3.74l1.632 4.896c-.77 2.357-2.176 4.148-4.216 5.372-2.04 1.224-4.669 1.836-7.888 1.836Zm45.641 0c-4.307 0-7.661-1.088-10.064-3.264-2.403-2.221-3.604-5.508-3.604-9.86V57.324h10.608v31.96c0 1.541.408 2.743 1.224 3.604.816.816 1.927 1.224 3.332 1.224 1.677 0 3.105-.453 4.284-1.36l2.856 7.48c-1.088.771-2.403 1.36-3.944 1.768-1.496.363-3.06.544-4.692.544Zm-19.312-28.152v-8.16h25.364v8.16h-25.364Zm49.339 28.152c-3.038 0-5.758-.589-8.16-1.768-2.358-1.179-4.194-2.97-5.508-5.372-1.315-2.448-1.972-5.553-1.972-9.316V65.416h10.608v19.108c0 3.037.634 5.281 1.904 6.732 1.314 1.405 3.15 2.108 5.508 2.108 1.632 0 3.082-.34 4.352-1.02 1.269-.725 2.266-1.813 2.992-3.264.725-1.496 1.088-3.355 1.088-5.576V65.416h10.608V102h-10.064V91.936l1.836 2.924c-1.224 2.539-3.038 4.465-5.44 5.78-2.358 1.269-4.942 1.904-7.752 1.904Zm43.555 0c-3.128 0-6.142-.363-9.044-1.088-2.856-.771-5.122-1.723-6.8-2.856l3.536-7.616c1.678 1.043 3.65 1.904 5.916 2.584 2.312.635 4.579.952 6.8.952 2.448 0 4.171-.295 5.168-.884 1.043-.59 1.564-1.405 1.564-2.448 0-.861-.408-1.496-1.224-1.904-.77-.453-1.813-.793-3.128-1.02a153.141 153.141 0 0 0-4.352-.68 60.742 60.742 0 0 1-4.692-.884 16.868 16.868 0 0 1-4.352-1.768 9.182 9.182 0 0 1-3.196-3.128c-.77-1.315-1.156-3.015-1.156-5.1 0-2.312.658-4.352 1.972-6.12 1.36-1.768 3.31-3.15 5.848-4.148 2.539-1.043 5.576-1.564 9.112-1.564a36.9 36.9 0 0 1 7.616.816c2.584.544 4.738 1.337 6.46 2.38l-3.536 7.548c-1.768-1.043-3.558-1.745-5.372-2.108a22.944 22.944 0 0 0-5.168-.612c-2.357 0-4.08.317-5.168.952s-1.632 1.45-1.632 2.448c0 .907.386 1.587 1.156 2.04.816.453 1.882.816 3.196 1.088a75.68 75.68 0 0 0 4.284.748c1.587.181 3.174.476 4.76.884 1.587.408 3.015.997 4.284 1.768 1.315.725 2.38 1.745 3.196 3.06.816 1.27 1.224 2.947 1.224 5.032 0 2.267-.68 4.284-2.04 6.052-1.36 1.723-3.332 3.083-5.916 4.08-2.538.997-5.644 1.496-9.316 1.496Z"/><g clip-path="url('#a')"><path fill="#F31C1C" d="M107.25 56H126L63.5 0 1 56h18.75L63.5 16.738 107.25 56Zm-75-44.738V0H13.5v28l18.75-16.738Z"/><path stroke="#F31C1C" d="M107.25 56H126L63.5 0 1 56h18.75L63.5 16.738 107.25 56Zm-75-44.738V0H13.5v28l18.75-16.738Z"/></g><defs><clipPath id="a"><path fill="#fff" d="M0 0h125v56H0z"/></clipPath></defs></svg>